En djupt mänsklig naturdokumentär av den uppmärksammade filmaren och fotografen Peter Gerdehag i samarbete med redigeraren Tell Johansson.

Stig-Anders liv styrs av Vår Herre och en djupt rotad tradition. Han lever ensam på familjegården i Råskog i djupaste Småland, en bärare av gamla jordbruksmetoder som förkastats och sen länge glömts i granngårdarna.

Överallt på Stig-Anders gård finns det hästar, hästar som plöjer, hästar som betar med korna, hästar som drar timmer i skogen, den skog som han försöker hålla så prydlig som vore det en park och inte ett stycke natur.

Så kommer stormen, som över en natt förändrar Stig-Anders stilla liv till ett drama på liv och död. Med snön piskande i ansiktet försöker han rädda det sista höet, som fått stå ute alldeles för länge. Hans prydliga skog blir ett enda kaos. Hans kor får inte vara kvar i den utkylda ladugården, hästarna tas om hand.

Stig-Anders vaknar upp på sjukhuset med fötterna svårt frostbitna, och i själen närmast apatisk. Utan sina hästar har hästmannen till synes inget att leva för.

Då, som en ängel från skyarna, dyker Madelene upp. Som liten lärde hon sig rida och arbeta i jordbruket på Stig-Anders gård. Nu har hon hört hur olyckan drabbat den ensamme mannen och hon har bestämt sig för att försöka hjälpa honom att komma tillbaka till sitt liv som den märklige hästmannen i Råskog.


CD1

General
Complete name                    : E:Hästmannen.2006.DVDRip.XviD-nesHästmannen.2006.DVDRip.XviD-nes.cd1.avi
Format                           : AVI
Format/Info                      : Audio Video Interleave
File size                        : 700 MiB
Duration                         : 35mn 49s
Overall bit rate                 : 2 730 Kbps
Writing application              : VirtualDubMod 1.5.4.1 (build 2178/release)
Writing library                  : VirtualDubMod build 2178/release

Video
ID                               : 0
Format                           : MPEG-4 Visual
Format profile                   : AdvancedSimple@L5
Format settings, BVOP            : Yes
Format settings, QPel            : No
Format settings, GMC             : No warppoints
Format settings, Matrix          : Custom
Codec ID                         : XVID
Codec ID/Hint                    : XviD
Duration                         : 35mn 49s
Bit rate                         : 2 275 Kbps
Width                            : 512 pixels
Height                           : 384 pixels
Display aspect ratio             : 4:3
Frame rate                       : 25.000 fps
Resolution                       : 24 bits
Colorimetry                      : 4:2:0
Scan type                        : Progressive
Bits/(Pixel*Frame)               : 0.463
Stream size                      : 583 MiB (83%)
Writing library                  : XviD 1.2.1 (UTC 2008-12-04)

Audio
ID                               : 1
Format                           : AC-3
Format/Info                      : Audio Coding 3
Codec ID                         : 2000
Duration                         : 35mn 49s
Bit rate mode                    : Constant
Bit rate                         : 448 Kbps
Channel(s)                       : 6 channels
Channel positions                : Front: L C R, Surround: L R, LFE
Sampling rate                    : 48.0 KHz
Stream size                      : 115 MiB (16%)
Alignment                        : Split accross interleaves
Interleave, duration             : 96 ms (2.40 video frames)
Interleave, preload duration     : 96 ms
Language                         : Swedish / Swedish / Swedish



CD2

General
Complete name                    : E:Hästmannen.2006.DVDRip.XviD-nesHästmannen.2006.DVDRip.XviD-nes.cd2.avi
Format                           : AVI
Format/Info                      : Audio Video Interleave
File size                        : 700 MiB
Duration                         : 48mn 22s
Overall bit rate                 : 2 023 Kbps
Writing application              : VirtualDubMod 1.5.4.1 (build 2178/release)
Writing library                  : VirtualDubMod build 2178/release

Video
ID                               : 0
Format                           : MPEG-4 Visual
Format profile                   : AdvancedSimple@L5
Format settings, BVOP            : Yes
Format settings, QPel            : No
Format settings, GMC             : No warppoints
Format settings, Matrix          : Custom
Codec ID                         : XVID
Codec ID/Hint                    : XviD
Duration                         : 48mn 22s
Bit rate                         : 1 570 Kbps
Width                            : 512 pixels
Height                           : 384 pixels
Display aspect ratio             : 4:3
Frame rate                       : 25.000 fps
Resolution                       : 24 bits
Colorimetry                      : 4:2:0
Scan type                        : Progressive
Bits/(Pixel*Frame)               : 0.319
Stream size                      : 543 MiB (78%)
Writing library                  : XviD 1.2.1 (UTC 2008-12-04)

Audio
ID                               : 1
Format                           : AC-3
Format/Info                      : Audio Coding 3
Codec ID                         : 2000
Duration                         : 48mn 10s
Bit rate mode                    : Constant
Bit rate                         : 448 Kbps
Channel(s)                       : 6 channels
Channel positions                : Front: L C R, Surround: L R, LFE
Sampling rate                    : 48.0 KHz
Stream size                      : 154 MiB (22%)
Alignment                        : Split accross interleaves
Interleave, duration             : 96 ms (2.41 video frames)
Interleave, preload duration     : 96 ms
Language                         : Swedish / Swedish / Swedish

